<svg width="562" height="523" viewBox="0 0 562 523" fill="none" xmlns="http://www.w3.org/2000/svg">
<g clip-path="url(#clip0_166_1036)">
<path d="M547.119 521.846C547.119 522.486 546.723 523 546.23 523H0.889862C0.396332 523 3.05176e-05 522.486 3.05176e-05 521.846C3.05176e-05 521.206 0.396332 520.692 0.889862 520.692H546.23C546.723 520.692 547.119 521.206 547.119 521.846Z" fill="#4B4A4A"/>
<path d="M372.493 92.2536H547.396C554.066 92.2536 559.495 85.2146 559.495 76.5661C559.495 67.9177 554.066 60.8787 547.396 60.8787H372.493C365.823 60.8787 360.394 67.9177 360.394 76.5661C360.394 85.2146 365.823 92.2536 372.493 92.2536ZM547.396 62.8178C553.244 62.8178 557.999 68.9842 557.999 76.5661C557.999 84.1481 553.244 90.3145 547.396 90.3145H372.493C366.646 90.3145 361.89 84.1481 361.89 76.5661C361.89 68.9842 366.646 62.8178 372.493 62.8178H547.396Z" fill="#E2E3E4"/>
<path d="M372.493 275.84H547.396C553.864 275.84 559.121 269.024 559.121 260.637C559.121 252.25 553.864 245.434 547.396 245.434H372.493C366.025 245.434 360.768 252.25 360.768 260.637C360.768 269.024 366.025 275.84 372.493 275.84Z" fill="#50C2C9"/>
<path d="M429.81 30.4054H550.275C556.743 30.4054 562 23.5894 562 15.2027C562 6.81601 556.743 0 550.275 0H429.81C423.341 0 418.085 6.81601 418.085 15.2027C418.085 23.5894 423.341 30.4054 429.81 30.4054Z" fill="#E2E3E4"/>
<path d="M372.493 153.607H547.396C554.066 153.607 559.495 146.568 559.495 137.92C559.495 129.271 554.066 122.232 547.396 122.232H372.493C365.823 122.232 360.394 129.271 360.394 137.92C360.394 146.568 365.823 153.607 372.493 153.607ZM547.396 124.172C553.244 124.172 557.999 130.338 557.999 137.92C557.999 145.502 553.244 151.668 547.396 151.668H372.493C366.646 151.668 361.89 145.502 361.89 137.92C361.89 130.338 366.646 124.172 372.493 124.172H547.396Z" fill="#E2E3E4"/>
<path d="M372.493 214.971H547.396C554.066 214.971 559.495 207.932 559.495 199.283C559.495 190.635 554.066 183.596 547.396 183.596H372.493C365.823 183.596 360.394 190.635 360.394 199.283C360.394 207.932 365.823 214.971 372.493 214.971ZM547.396 185.535C553.244 185.535 557.999 191.701 557.999 199.283C557.999 206.865 553.244 213.032 547.396 213.032H372.493C366.646 213.032 361.89 206.865 361.89 199.283C361.89 191.701 366.646 185.535 372.493 185.535H547.396Z" fill="#E2E3E4"/>
<path d="M553.408 49.6124H507.57C506.478 49.6124 505.588 50.7564 505.588 52.1817C505.588 53.5973 506.478 54.751 507.57 54.751H553.408C554.5 54.751 555.39 53.607 555.39 52.1817C555.39 50.7661 554.5 49.6124 553.408 49.6124Z" fill="#E2E3E4"/>
<path d="M553.408 112.42H507.57C506.478 112.42 505.588 113.564 505.588 114.98C505.588 116.396 506.478 117.549 507.57 117.549H553.408C554.5 117.549 555.39 116.405 555.39 114.99C555.39 113.574 554.5 112.42 553.408 112.42Z" fill="#E2E3E4"/>
<path d="M553.408 175.238H507.57C506.478 175.238 505.588 176.382 505.588 177.808C505.588 179.223 506.478 180.367 507.57 180.367H553.408C554.5 180.367 555.39 179.223 555.39 177.798C555.39 176.382 554.5 175.238 553.408 175.238Z" fill="#E2E3E4"/>
<path d="M227.688 128.234L244.408 135.37V104.16H229.236L227.688 128.234Z" fill="#FFB9B9"/>
<path d="M242.337 112.799C233.135 112.799 225.676 103.127 225.676 91.1969C225.676 79.2665 233.135 69.5951 242.337 69.5951C251.538 69.5951 258.997 79.2665 258.997 91.1969C258.997 103.127 251.538 112.799 242.337 112.799Z" fill="#FFB9B9"/>
<path d="M237.76 89.0541C240.549 88.9475 242.382 85.2922 243.466 81.9569C244.55 78.6216 245.664 74.7919 248.252 73.4151C250.368 72.2904 254.099 79.9015 255.767 77.8751C257.509 75.7614 255.811 64.9121 253.964 62.9633C252.117 61.0144 249.59 60.6363 247.212 60.4909C241.409 60.1418 235.569 60.7527 229.879 62.2943C226.357 63.2444 222.738 64.6794 220.195 67.9759C216.98 72.1644 216.157 78.4762 215.925 84.3808C215.686 90.4212 215.955 96.7427 218.221 102.027C220.487 107.311 225.228 111.209 229.774 109.861C230.23 106.661 229.767 103.375 229.587 100.117C229.415 96.8688 229.595 93.359 231.128 90.7702C232.653 88.1815 235.928 87.1538 237.708 89.4516" fill="#2F2E43"/>
<path d="M217.264 96.5391C215.596 94.9587 213.6 93.6304 211.551 93.9601C209.338 94.3091 207.461 96.6748 206.892 99.4769C206.324 102.279 206.96 105.362 208.336 107.65C209.704 109.938 211.745 111.451 213.899 112.207C215.148 112.643 216.516 112.828 217.705 112.168C219.455 111.189 220.405 108.29 219.717 105.983" fill="#2F2E43"/>
<path d="M281.019 299.788C282.133 306.885 280.091 313.372 276.472 314.273C272.853 315.175 269.017 310.143 267.91 303.046C267.439 300.215 267.514 297.287 268.127 294.494L254.346 183.237L271.582 179.029L278.237 291.983C279.65 294.271 280.6 296.947 281.019 299.798V299.788Z" fill="#FFB9B9"/>
<path d="M244.587 121.05H256.35C264.665 122.688 266.923 128.438 268.815 139.064C271.702 155.275 275.388 176.857 274.655 177.177C273.481 177.682 253.456 189.898 243.249 187.106L244.587 121.05Z" fill="#E2E3E4"/>
<path d="M233.214 475.433H248.872V504.239H233.214V475.433Z" fill="#FFB9B9"/>
<path d="M264.119 521.672C265.764 521.672 267.23 521.623 268.337 521.488C272.494 520.993 276.465 517.008 278.461 514.681C279.359 513.634 279.643 511.966 279.179 510.532C278.843 509.504 278.177 508.728 277.347 508.428L266.355 504.355L248.558 488.784L248.356 489.25C248.281 489.424 246.532 493.506 245.948 496.26C245.724 497.307 245.784 498.179 246.12 498.858C246.352 499.323 246.681 499.595 246.943 499.75C246.621 500.186 245.612 501.078 242.501 501.718C237.962 502.649 237.005 496.55 236.968 496.298L236.938 496.095L236.803 495.978C234.642 494.175 233.311 493.351 232.855 493.525C232.571 493.632 232.092 493.826 230.799 510.435C230.671 510.958 229.767 514.778 230.38 518.433C231.045 522.409 244.445 521.042 247.13 520.731C247.205 520.741 257.24 521.672 264.112 521.672H264.119Z" fill="#2F2E43"/>
<path d="M188.627 452.802L201.914 463.545L190.157 487.987L176.871 477.244L188.627 452.802Z" fill="#FFB9B9"/>
<path d="M206.272 517.726C208.111 517.726 209.801 517.435 211.005 517.163C212.187 516.892 213.114 515.67 213.308 514.138C213.443 513.033 213.196 511.918 212.613 511.094L204.948 500.099L196.199 474.677L195.84 474.929C195.706 475.026 192.558 477.285 190.935 479.224C190.314 479.961 190.008 480.747 190.023 481.551C190.03 482.114 190.195 482.56 190.359 482.88C189.911 483.035 188.692 483.093 185.79 481.503C181.558 479.186 183.233 473.349 183.308 473.107L183.368 472.913L183.3 472.728C182.201 469.713 181.416 468.104 180.952 467.939C180.661 467.832 180.182 467.667 172.308 480.882C171.987 481.231 169.661 483.859 168.689 487.378C167.635 491.208 179.562 499.246 181.962 500.817C182.037 500.894 194.517 512.655 199.647 516C201.681 517.328 204.088 517.735 206.279 517.735L206.272 517.726Z" fill="#2F2E43"/>
<path d="M221.683 234.546H265.525L269.503 287.426L252.095 482.812H229.714L238.665 369.965L202.361 471.846L182.47 453.793L210.818 358.679C210.818 358.679 200.693 275.82 208.65 255.178C216.606 234.546 221.683 234.546 221.683 234.546Z" fill="#2F2E43"/>
<path d="M199.871 237.765H269.503L248.61 121.05H218.273L199.871 237.765Z" fill="#E2E3E4"/>
<path d="M193.605 299.788C192.49 306.885 194.532 313.372 198.151 314.273C201.77 315.175 205.606 310.143 206.713 303.046C207.184 300.215 207.109 297.287 206.496 294.494L220.278 183.237L203.041 179.029L196.386 291.983C194.973 294.271 194.023 296.947 193.605 299.798V299.788Z" fill="#FFB9B9"/>
<path d="M230.036 121.05H218.273C209.958 122.688 207.7 128.438 205.808 139.064C202.922 155.275 199.235 176.857 199.968 177.177C201.142 177.682 221.167 189.898 231.374 187.106L230.036 121.05Z" fill="#E2E3E4"/>
</g>
<defs>
<clipPath id="clip0_166_1036">
<rect width="562" height="523" fill="white" transform="matrix(-1 0 0 1 562 0)"/>
</clipPath>
</defs>
</svg>
