<svg width="477" height="564" viewBox="0 0 477 564" fill="none" xmlns="http://www.w3.org/2000/svg">
<g clip-path="url(#clip0_161_895)">
<path d="M359.228 129.929V193.728C359.226 194.317 358.974 194.882 358.527 195.299C358.079 195.716 357.473 195.95 356.84 195.952H355.14V528.302C355.14 537.499 351.218 546.319 344.236 552.822C337.255 559.325 327.786 562.979 317.913 562.98H94.9773C85.1058 562.979 75.6391 559.325 68.6596 552.822C61.68 546.32 57.7595 537.5 57.7604 528.305V207.608H56.5299C56.0835 207.609 55.655 207.445 55.3383 207.152C55.0217 206.858 54.8427 206.46 54.8406 206.044V169.735C54.8406 169.528 54.8842 169.324 54.969 169.133C55.0539 168.942 55.1782 168.769 55.335 168.622C55.4919 168.476 55.6781 168.36 55.883 168.281C56.0879 168.202 56.3075 168.161 56.5293 168.161H57.7604V154.485H56.5195C56.0508 154.483 55.6021 154.308 55.2717 153.999C54.9413 153.689 54.7563 153.27 54.7572 152.833V117.02C54.7584 116.584 54.9445 116.168 55.2747 115.86C55.6049 115.552 56.0525 115.379 56.5195 115.378H57.7604V96.7084H56.4986C56.2935 96.7087 56.0903 96.6713 55.9006 96.5984C55.711 96.5255 55.5387 96.4185 55.3934 96.2836C55.2482 96.1486 55.1329 95.9884 55.0541 95.8119C54.9754 95.6355 54.9347 95.4463 54.9344 95.2552V75.7076C54.9335 75.32 55.0976 74.9479 55.3909 74.673C55.6841 74.398 56.0825 74.2426 56.4986 74.2409H57.7604V34.6678C57.7608 25.4734 61.682 16.6557 68.6614 10.1543C75.6409 3.65293 85.1069 0.000333264 94.9773 3.13175e-10H317.913C327.785 -3.90517e-05 337.252 3.65212 344.233 10.1533C351.214 16.6545 355.138 25.4724 355.14 34.6678V127.704H356.84C357.473 127.706 358.079 127.941 358.527 128.358C358.974 128.774 359.226 129.339 359.228 129.929Z" fill="#3F3D56"/>
<path d="M180.96 17.7824H217.186C217.889 17.7824 218.563 18.0426 219.06 18.5056C219.557 18.9686 219.836 19.5967 219.836 20.2515V23.1681C219.836 23.823 219.557 24.451 219.06 24.9141C218.563 25.3771 217.889 25.6372 217.186 25.6372H180.96C180.257 25.6372 179.583 25.3771 179.086 24.9141C178.589 24.451 178.309 23.823 178.309 23.1682V20.2515C178.309 19.5967 178.589 18.9686 179.086 18.5056C179.583 18.0426 180.257 17.7824 180.96 17.7824Z" fill="#E6E8EC"/>
<path d="M230.898 26.1651C233.54 26.1651 235.681 24.1704 235.681 21.7098C235.681 19.2492 233.54 17.2545 230.898 17.2545C228.257 17.2545 226.115 19.2492 226.115 21.7098C226.115 24.1704 228.257 26.1651 230.898 26.1651Z" fill="#E6E8EC"/>
<path d="M337.314 41.5096V531.181C337.311 537.014 334.821 542.607 330.392 546.731C325.963 550.855 319.957 553.172 313.695 553.173H100.291C97.1937 553.177 94.1262 552.613 91.2632 551.513C88.4002 550.414 85.7978 548.799 83.6045 546.763C81.4113 544.726 79.6702 542.307 78.4807 539.643C77.2911 536.98 76.6764 534.124 76.6716 531.239V41.5291C76.6715 38.6398 77.2823 35.7788 78.4692 33.1094C79.6562 30.44 81.3959 28.0146 83.5892 25.9716C85.7824 23.9285 88.3862 22.3079 91.2518 21.2023C94.1175 20.0967 97.1888 19.5277 100.291 19.5278H132.231V23.3452C132.231 28.1498 134.28 32.7577 137.927 36.155C141.574 39.5524 146.521 41.461 151.679 41.4611H260.211C265.369 41.461 270.316 39.5524 273.963 36.155C277.61 32.7576 279.659 28.1498 279.659 23.3452V19.5278H313.695C316.796 19.5255 319.867 20.0924 322.732 21.196C325.597 22.2996 328.201 23.9184 330.395 25.9598C332.588 28.0012 334.328 30.4252 335.516 33.0934C336.703 35.7615 337.314 38.6214 337.314 41.5096Z" fill="white"/>
<path d="M337.314 465.459V531.181C337.311 537.014 334.821 542.607 330.392 546.731C325.963 550.855 319.957 553.172 313.695 553.173H100.291C97.1937 553.177 94.1262 552.613 91.2632 551.513C88.4002 550.414 85.7978 548.799 83.6045 546.763C81.4113 544.726 79.6702 542.307 78.4807 539.643C77.2911 536.98 76.6764 534.124 76.6716 531.239V465.459H337.314Z" fill="#F2F2F2"/>
<path d="M99.5862 80.8011C98.7568 80.8019 97.9616 81.1092 97.3751 81.6555C96.7887 82.2018 96.4588 82.9426 96.4579 83.7152V136.168C96.4588 136.941 96.7887 137.682 97.3751 138.228C97.9616 138.774 98.7568 139.082 99.5862 139.083H155.896C156.726 139.082 157.521 138.774 158.107 138.228C158.694 137.682 159.024 136.941 159.025 136.168V83.7152C159.024 82.9426 158.694 82.2018 158.107 81.6555C157.521 81.1092 156.726 80.8019 155.896 80.8011H99.5862Z" fill="#E6E6E6"/>
<path d="M178.838 80.8011C178.009 80.8019 177.213 81.1092 176.627 81.6555C176.04 82.2018 175.711 82.9426 175.71 83.7152V136.168C175.711 136.941 176.04 137.682 176.627 138.228C177.213 138.774 178.009 139.082 178.838 139.083H235.148C235.977 139.082 236.773 138.774 237.359 138.228C237.946 137.682 238.275 136.941 238.276 136.168V83.7152C238.275 82.9426 237.946 82.2018 237.359 81.6555C236.773 81.1092 235.977 80.8019 235.148 80.8011H178.838Z" fill="#E6E6E6"/>
<path d="M258.089 80.8011C257.259 80.8019 256.464 81.1092 255.878 81.6555C255.291 82.2019 254.961 82.9426 254.961 83.7152V136.168C254.961 136.941 255.291 137.682 255.878 138.228C256.464 138.774 257.259 139.082 258.089 139.083H314.399C315.228 139.082 316.024 138.774 316.61 138.228C317.197 137.682 317.526 136.941 317.527 136.168V83.7152C317.526 82.9426 317.197 82.2018 316.61 81.6555C316.024 81.1092 315.228 80.8019 314.399 80.8011H258.089Z" fill="#E6E6E6"/>
<path d="M99.7165 161.424C98.8871 161.425 98.092 161.732 97.5055 162.278C96.919 162.825 96.5891 163.565 96.5882 164.338V216.791C96.5891 217.564 96.919 218.305 97.5055 218.851C98.092 219.397 98.8871 219.704 99.7165 219.705H156.027C156.856 219.704 157.651 219.397 158.238 218.851C158.824 218.305 159.154 217.564 159.155 216.791V164.338C159.154 163.565 158.824 162.825 158.238 162.278C157.651 161.732 156.856 161.425 156.027 161.424H99.7165Z" fill="#E6E6E6"/>
<path d="M178.968 161.424C178.139 161.425 177.343 161.732 176.757 162.278C176.17 162.825 175.841 163.565 175.84 164.338V216.791C175.841 217.564 176.17 218.305 176.757 218.851C177.343 219.397 178.139 219.704 178.968 219.705H235.278C236.108 219.704 236.903 219.397 237.489 218.851C238.076 218.305 238.406 217.564 238.406 216.791V164.338C238.406 163.565 238.076 162.825 237.489 162.278C236.903 161.732 236.108 161.425 235.278 161.424H178.968Z" fill="#E6E6E6"/>
<path d="M258.22 161.424C257.39 161.425 256.595 161.732 256.009 162.278C255.422 162.825 255.092 163.565 255.091 164.338V216.791C255.092 217.564 255.422 218.305 256.009 218.851C256.595 219.397 257.39 219.704 258.22 219.705H314.53C315.359 219.704 316.154 219.397 316.741 218.851C317.327 218.305 317.657 217.564 317.658 216.791V164.338C317.657 163.565 317.327 162.825 316.741 162.278C316.154 161.732 315.359 161.425 314.53 161.424H258.22Z" fill="#E6E6E6"/>
<path d="M99.8471 242.047C99.0177 242.047 98.2225 242.355 97.6361 242.901C97.0496 243.447 96.7197 244.188 96.7188 244.961V297.414C96.7197 298.187 97.0496 298.927 97.6361 299.474C98.2225 300.02 99.0177 300.327 99.8471 300.328H156.157C156.987 300.327 157.782 300.02 158.368 299.474C158.955 298.927 159.285 298.187 159.286 297.414V244.961C159.285 244.188 158.955 243.447 158.368 242.901C157.782 242.355 156.987 242.047 156.157 242.047H99.8471Z" fill="#E6E6E6"/>
<path d="M179.099 242.047C178.269 242.047 177.474 242.355 176.888 242.901C176.301 243.447 175.971 244.188 175.97 244.961V297.414C175.971 298.187 176.301 298.927 176.888 299.474C177.474 300.02 178.269 300.327 179.099 300.328H235.409C236.238 300.327 237.033 300.02 237.62 299.474C238.206 298.927 238.536 298.187 238.537 297.414V244.961C238.536 244.188 238.206 243.447 237.62 242.901C237.033 242.355 236.238 242.047 235.409 242.047H179.099Z" fill="#E6E6E6"/>
<path d="M258.35 242.047C257.52 242.047 256.725 242.355 256.139 242.901C255.552 243.447 255.222 244.188 255.221 244.961V297.414C255.222 298.187 255.552 298.927 256.139 299.474C256.725 300.02 257.52 300.327 258.35 300.328H314.66C315.489 300.327 316.285 300.02 316.871 299.474C317.458 298.927 317.787 298.187 317.788 297.414V244.961C317.787 244.188 317.458 243.447 316.871 242.901C316.285 242.355 315.489 242.047 314.66 242.047H258.35Z" fill="#E6E6E6"/>
<path d="M99.7165 480.029C98.8871 480.03 98.092 480.337 97.5055 480.884C96.919 481.43 96.5891 482.171 96.5882 482.943V535.397C96.5891 536.169 96.919 536.91 97.5055 537.456C98.092 538.003 98.8871 538.31 99.7165 538.311H156.027C156.856 538.31 157.651 538.003 158.238 537.456C158.824 536.91 159.154 536.169 159.155 535.397V482.943C159.154 482.171 158.824 481.43 158.238 480.884C157.651 480.337 156.856 480.03 156.027 480.029H99.7165Z" fill="#50C2C9"/>
<path d="M178.968 480.029C178.139 480.03 177.343 480.337 176.757 480.884C176.17 481.43 175.841 482.171 175.84 482.943V535.397C175.841 536.169 176.17 536.91 176.757 537.456C177.343 538.003 178.139 538.31 178.968 538.311H235.278C236.108 538.31 236.903 538.003 237.489 537.456C238.076 536.91 238.406 536.169 238.406 535.397V482.943C238.406 482.171 238.076 481.43 237.489 480.884C236.903 480.337 236.108 480.03 235.278 480.029H178.968Z" fill="#50C2C9"/>
<path d="M258.22 480.029C257.39 480.03 256.595 480.337 256.009 480.884C255.422 481.43 255.092 482.171 255.091 482.943V535.397C255.092 536.169 255.422 536.91 256.009 537.456C256.595 538.003 257.39 538.31 258.22 538.311H314.53C315.359 538.31 316.154 538.003 316.741 537.456C317.327 536.91 317.657 536.169 317.658 535.397V482.943C317.657 482.171 317.327 481.43 316.741 480.884C316.154 480.337 315.359 480.03 314.53 480.029H258.22Z" fill="#50C2C9"/>
<path d="M99.9773 322.669C99.1479 322.67 98.3527 322.977 97.7662 323.524C97.1798 324.07 96.8499 324.811 96.849 325.583V378.037C96.8499 378.809 97.1798 379.55 97.7662 380.096C98.3527 380.643 99.1479 380.95 99.9773 380.951H156.287C157.117 380.95 157.912 380.643 158.498 380.096C159.085 379.55 159.415 378.809 159.416 378.037V325.583C159.415 324.811 159.085 324.07 158.498 323.524C157.912 322.977 157.117 322.67 156.287 322.669L99.9773 322.669Z" fill="#E6E6E6"/>
<path d="M417.103 357.553L419.956 370.714C420.272 372.171 420.899 373.554 421.8 374.781C422.701 376.008 423.857 377.054 425.2 377.857C426.543 378.66 428.046 379.204 429.619 379.455C431.192 379.707 432.803 379.661 434.357 379.322C436.259 378.906 438.023 378.06 439.492 376.86C440.961 375.659 442.091 374.14 442.781 372.437C443.472 370.734 443.701 368.899 443.451 367.093C443.2 365.288 442.477 363.567 441.344 362.084L433.084 351.267L412.651 299.067L416.381 254.355C404.654 250.252 392.715 245.657 386.243 253.759L394.284 302.682L417.103 357.553Z" fill="#FFB9B9"/>
<path d="M428.398 366.514C427.671 366.515 426.975 366.784 426.461 367.262C425.947 367.741 425.658 368.39 425.657 369.066V415.013C425.658 415.69 425.947 416.339 426.461 416.817C426.975 417.296 427.671 417.565 428.398 417.566H477.723C478.449 417.565 479.146 417.296 479.659 416.817C480.173 416.339 480.462 415.69 480.463 415.013V369.066C480.462 368.39 480.173 367.741 479.659 367.262C479.146 366.784 478.449 366.515 477.723 366.514H428.398Z" fill="#50C2C9"/>
<path d="M441.616 187.601C441.616 187.33 441.611 187.063 441.606 186.783C441.143 169.707 426.632 156.332 408.57 156.332C404.215 156.326 399.903 157.134 395.889 158.707C391.875 160.28 388.24 162.587 385.199 165.492C378.974 171.387 375.496 179.331 375.519 187.601V218.22H441.616V187.601Z" fill="#2F2E41"/>
<path d="M423.417 557.498C423.601 556.291 423.41 555.061 422.867 553.952C422.324 552.843 421.452 551.902 420.353 551.241L400.697 542.256L385.878 543.999L382.378 555.686C382.23 556.519 382.266 557.371 382.483 558.19C382.699 559.01 383.093 559.78 383.64 560.453C384.186 561.126 384.874 561.689 385.661 562.107C386.449 562.524 387.319 562.788 388.219 562.883L415.872 562.939C417.642 563.125 419.421 562.66 420.829 561.644C422.238 560.628 423.166 559.141 423.417 557.498Z" fill="#2F2E41"/>
<path d="M355.322 370.984L357.602 384.548L357.807 385.791L366.567 437.925L369.274 454.038L370.104 458.982L372.407 474.577L383.141 547.206L401.805 543.265L402.697 459.535L402.85 445.162L402.994 433.01L403.124 422.322L403.643 379.335L355.322 370.984Z" fill="#2F2E41"/>
<path d="M415.495 209.169C429.316 209.169 440.52 198.732 440.52 185.858C440.52 172.984 429.316 162.548 415.495 162.548C401.675 162.548 390.471 172.984 390.471 185.858C390.471 198.732 401.675 209.169 415.495 209.169Z" fill="#FFB9B9"/>
<path d="M387.76 225.68L416.121 238.889C414.879 225.792 417.933 212.651 424.88 201.204L400.272 197.708C399.94 206.912 394.941 216.262 387.76 225.68Z" fill="#FFB9B9"/>
<path d="M373.996 316.591L424.045 326.692L428.216 296.388C430.931 283.428 435.826 270.751 427.253 260.568L425.996 250.093C425.388 245.025 423.557 240.151 420.641 235.835C417.724 231.519 413.798 227.873 409.156 225.17L394.016 216.356C362.634 232.17 363.896 271.233 373.996 316.591Z" fill="#E6E6E6"/>
<path opacity="0.2" d="M369.274 454.039L370.104 458.982L372.407 474.577L402.697 459.535L402.85 445.162L402.994 433.01L369.274 454.039Z" fill="black"/>
<path opacity="0.2" d="M355.322 370.984L357.602 384.548L357.808 385.791C361.42 391.384 366.151 396.281 371.744 400.215L403.124 422.322L403.643 379.335L355.322 370.984Z" fill="black"/>
<path d="M361.901 452.957L367.74 471.216L443.181 433.746C445.767 432.353 447.99 430.443 449.689 428.154C451.387 425.864 452.519 423.252 453.003 420.506C453.488 417.759 453.312 414.947 452.488 412.272C451.665 409.597 450.215 407.125 448.243 405.034L406.945 361.269L425.296 322.807L372.745 309.986L366.906 321.641C354.709 332.247 349.22 344.624 350.439 358.772C351.082 365.796 353.313 372.614 356.985 378.778C360.657 384.941 365.688 390.312 371.746 394.536L411.116 422.265L361.901 452.957Z" fill="#2F2E41"/>
<path d="M356.178 487.803C357.471 487.896 358.766 487.641 359.908 487.07C361.051 486.499 361.995 485.635 362.627 484.58L373.933 465.711L371.136 452.165L358.5 449.685C357.606 449.602 356.703 449.689 355.847 449.941C354.99 450.193 354.197 450.605 353.517 451.152C352.837 451.698 352.283 452.368 351.89 453.121C351.497 453.873 351.272 454.692 351.229 455.528L349.917 481.197C349.833 482.84 350.44 484.449 351.609 485.683C352.777 486.916 354.417 487.677 356.178 487.803Z" fill="#2F2E41"/>
<path d="M372.328 362.823L371.878 376.242C371.828 377.728 372.099 379.208 372.675 380.595C373.251 381.981 374.12 383.246 375.231 384.313C376.342 385.381 377.672 386.23 379.141 386.809C380.611 387.389 382.191 387.688 383.787 387.688C385.741 387.688 387.665 387.24 389.39 386.383C391.115 385.527 392.587 384.289 393.677 382.778C394.767 381.267 395.441 379.529 395.639 377.718C395.838 375.907 395.555 374.078 394.816 372.392L389.428 360.104L382.338 304.936L396.935 262.2C386.524 255.71 376.028 248.696 367.74 255.207L363.57 304.547L372.328 362.823Z" fill="#FFB9B9"/>
<path d="M362.736 261.423C378.102 254.581 389.88 258.071 398.604 270.358L404.259 240.969C404.911 237.583 404.348 234.091 402.659 231.031C400.969 227.972 398.246 225.516 394.909 224.04C393.235 223.3 391.417 222.885 389.565 222.82C387.713 222.754 385.866 223.04 384.136 223.661C382.407 224.281 380.831 225.222 379.504 226.427C378.177 227.632 377.126 229.076 376.417 230.671L362.736 261.423Z" fill="#E6E6E6"/>
<path d="M388.069 169.543L394.35 188.158L448.654 187.259C448.469 180.746 446.104 174.45 441.89 169.25C437.676 164.05 431.824 160.206 425.151 158.254C418.478 156.303 411.317 156.342 404.669 158.366C398.02 160.39 392.217 164.297 388.069 169.543Z" fill="#2F2E41"/>
<path d="M499.656 564H0V562.232H500L499.656 564Z" fill="#3F3D56"/>
</g>
<defs>
<clipPath id="clip0_161_895">
<rect width="500" height="564" fill="white"/>
</clipPath>
</defs>
</svg>
